<svg width="24" height="24" viewBox="0 0 24 24" fill="none" xmlns="http://www.w3.org/2000/svg">
<g opacity="0.5" clip-path="url(#clip0_4_6)">
<path d="M18.364 4.636C20.0163 6.28813 20.9613 8.51812 20.9992 10.8544C21.0371 13.1907 20.1649 15.4502 18.567 17.155L18.364 17.365L14.121 21.607C13.5826 22.145 12.8599 22.4583 12.0992 22.4834C11.3384 22.5084 10.5966 22.2434 10.024 21.742L9.88 21.607L5.636 17.364C3.94816 15.6762 2.99994 13.387 2.99994 11C2.99994 8.61304 3.94816 6.32384 5.636 4.636C7.32384 2.94816 9.61304 1.99995 12 1.99995C14.387 1.99995 16.6762 2.94816 18.364 4.636ZM12 8C11.606 8 11.2159 8.0776 10.8519 8.22836C10.488 8.37913 10.1573 8.60011 9.87868 8.87868C9.6001 9.15726 9.37913 9.48797 9.22836 9.85195C9.0776 10.2159 9 10.606 9 11C9 11.394 9.0776 11.7841 9.22836 12.1481C9.37913 12.512 9.6001 12.8427 9.87868 13.1213C10.1573 13.3999 10.488 13.6209 10.8519 13.7716C11.2159 13.9224 11.606 14 12 14C12.7956 14 13.5587 13.6839 14.1213 13.1213C14.6839 12.5587 15 11.7957 15 11C15 10.2044 14.6839 9.44129 14.1213 8.87868C13.5587 8.31607 12.7956 8 12 8Z" fill="#111827"/>
</g>
<defs>
<clipPath id="clip0_4_6">
<rect width="24" height="24" fill="white"/>
</clipPath>
</defs>
</svg>
