<svg width="16" height="16" viewBox="0 0 16 16" fill="none" xmlns="http://www.w3.org/2000/svg">
<g clip-path="url(#clip0_63_21543)">
<path d="M11.3333 2.22676C12.3389 2.80733 13.1753 3.64044 13.7599 4.64362C14.3445 5.64681 14.6569 6.78527 14.6663 7.94632C14.6757 9.10736 14.3817 10.2507 13.8134 11.2632C13.2451 12.2757 12.4222 13.1222 11.4262 13.719C10.4302 14.3157 9.29559 14.642 8.13474 14.6655C6.9739 14.689 5.82704 14.4089 4.80771 13.8529C3.78838 13.297 2.93192 12.4844 2.32312 11.4958C1.71432 10.5071 1.37428 9.37656 1.33668 8.21609L1.33334 8.00009L1.33668 7.78409C1.37401 6.63275 1.70904 5.51073 2.3091 4.52742C2.90916 3.54411 3.75378 2.73306 4.7606 2.17335C5.76743 1.61363 6.90211 1.32436 8.05401 1.33372C9.20592 1.34308 10.3357 1.65076 11.3333 2.22676ZM11.138 4.86209C11.013 4.73711 10.8435 4.6669 10.6667 4.6669C10.4899 4.6669 10.3204 4.73711 10.1953 4.86209L8.46868 6.58876L8.41334 6.65142L8.36801 6.71809C8.17752 6.66346 7.97725 6.65196 7.78176 6.68443C7.58627 6.71689 7.40047 6.7925 7.23785 6.90576C7.07524 7.01902 6.93991 7.16708 6.84168 7.3392C6.74346 7.51131 6.68481 7.70314 6.67001 7.90076L6.66668 8.00009L6.67001 8.10009C6.68401 8.2861 6.73689 8.46711 6.82523 8.63141C6.91357 8.79571 7.0354 8.93964 7.18285 9.0539C7.33029 9.16817 7.50008 9.25022 7.68122 9.29476C7.86237 9.3393 8.05084 9.34534 8.23447 9.31247C8.41809 9.27961 8.59277 9.20859 8.74723 9.10399C8.90168 8.99939 9.03247 8.86354 9.13114 8.70523C9.2298 8.54692 9.29415 8.36967 9.32003 8.18493C9.3459 8.00019 9.33272 7.81208 9.28134 7.63276C9.32883 7.60468 9.37252 7.57062 9.41134 7.53142L11.138 5.80476L11.1933 5.74209C11.2928 5.61382 11.3421 5.45365 11.3319 5.29164C11.3217 5.12962 11.2528 4.97689 11.138 4.86209Z" fill="#F59E0B"/>
</g>
<defs>
<clipPath id="clip0_63_21543">
<rect width="16" height="16" fill="white"/>
</clipPath>
</defs>
</svg>
