<svg width="16" height="16" viewBox="0 0 16 16" fill="none" xmlns="http://www.w3.org/2000/svg">
<path d="M6.5 8.00008C6.5 7.17165 7.17157 6.50008 8 6.50008C8.82843 6.50008 9.5 7.17165 9.5 8.00008C9.5 8.82851 8.82843 9.50008 8 9.50008C7.17157 9.50008 6.5 8.82851 6.5 8.00008Z" fill="#10B981"/>
<path fill-rule="evenodd" clip-rule="evenodd" d="M1.33333 8.00008C1.33333 9.093 1.61664 9.46106 2.18326 10.1972C3.31464 11.667 5.21207 13.3334 8 13.3334C10.7879 13.3334 12.6854 11.667 13.8167 10.1972C14.3834 9.46106 14.6667 9.093 14.6667 8.00008C14.6667 6.90716 14.3834 6.5391 13.8167 5.80297C12.6854 4.33312 10.7879 2.66675 8 2.66675C5.21207 2.66675 3.31464 4.33312 2.18326 5.80297C1.61664 6.5391 1.33333 6.90716 1.33333 8.00008ZM8 5.50008C6.61929 5.50008 5.5 6.61937 5.5 8.00008C5.5 9.38079 6.61929 10.5001 8 10.5001C9.38071 10.5001 10.5 9.38079 10.5 8.00008C10.5 6.61937 9.38071 5.50008 8 5.50008Z" fill="#10B981"/>
</svg>
