<svg width="16" height="16" viewBox="0 0 16 16" fill="none" xmlns="http://www.w3.org/2000/svg">
<path fill-rule="evenodd" clip-rule="evenodd" d="M4.16667 3.66667C4.16667 2.47005 5.13672 1.5 6.33333 1.5C7.52995 1.5 8.5 2.47005 8.5 3.66667C8.5 4.86328 7.52995 5.83333 6.33333 5.83333H2C1.72386 5.83333 1.5 5.60948 1.5 5.33333C1.5 5.05719 1.72386 4.83333 2 4.83333H6.33333C6.97766 4.83333 7.5 4.311 7.5 3.66667C7.5 3.02233 6.97766 2.5 6.33333 2.5C5.689 2.5 5.16667 3.02233 5.16667 3.66667V3.90476C5.16667 4.1809 4.94281 4.40476 4.66667 4.40476C4.39052 4.40476 4.16667 4.1809 4.16667 3.90476V3.66667ZM9.5 5C9.5 3.43519 10.7685 2.16667 12.3333 2.16667C13.8981 2.16667 15.1667 3.43519 15.1667 5C15.1667 6.56481 13.8981 7.83333 12.3333 7.83333H1.33333C1.05719 7.83333 0.833332 7.60948 0.833332 7.33333C0.833332 7.05719 1.05719 6.83333 1.33333 6.83333H12.3333C13.3459 6.83333 14.1667 6.01252 14.1667 5C14.1667 3.98748 13.3459 3.16667 12.3333 3.16667C11.3208 3.16667 10.5 3.98748 10.5 5V5.33333C10.5 5.60948 10.2761 5.83333 10 5.83333C9.72386 5.83333 9.5 5.60948 9.5 5.33333V5ZM2.16667 9.33333C2.16667 9.05719 2.39052 8.83333 2.66667 8.83333H12.3333C13.8981 8.83333 15.1667 10.1019 15.1667 11.6667C15.1667 13.2315 13.8981 14.5 12.3333 14.5C10.7685 14.5 9.5 13.2315 9.5 11.6667V11.3333C9.5 11.0572 9.72386 10.8333 10 10.8333C10.2761 10.8333 10.5 11.0572 10.5 11.3333V11.6667C10.5 12.6792 11.3208 13.5 12.3333 13.5C13.3459 13.5 14.1667 12.6792 14.1667 11.6667C14.1667 10.6541 13.3459 9.83333 12.3333 9.83333H2.66667C2.39052 9.83333 2.16667 9.60948 2.16667 9.33333Z" fill="#EC4899"/>
</svg>
